<?xml version="1.0" encoding="UTF-8"?>
<svg version="1.1" xmlns="http://www.w3.org/2000/svg" width="500" height="500">
<path d="M0 0 C165 0 330 0 500 0 C500 165 500 330 500 500 C335 500 170 500 0 500 C0 335 0 170 0 0 Z " fill="#FEFEFE" transform="translate(0,0)"/>
<path d="M0 0 C0.75038544 0.00093658 1.50077087 0.00187317 2.27389526 0.00283813 C28.86387167 0.07451684 53.64746784 4.41816331 79.44384766 10.73632812 C88.40977861 12.91846831 97.40741879 14.93887661 106.42321777 16.90292358 C108.03192894 17.25368029 109.64026097 17.60618137 111.24816895 17.96060181 C126.06176197 21.22109457 140.40926323 23.53624953 155.61083984 23.44824219 C157.81765986 23.43747482 160.02367238 23.44823511 162.23046875 23.4609375 C170.56203868 23.46850234 178.50029791 22.82624749 186.6875 21.1875 C189.01795025 20.82647246 191.35081956 20.50613824 193.6875 20.1875 C191.13691351 23.17053887 188.25736615 24.38902246 184.75 26.0625 C181.04989171 28.15907997 179.0877833 29.35918042 177.22265625 33.21875 C176.6135265 35.45658289 176.04596038 37.70612565 175.51953125 39.96484375 C173.57178735 47.50892224 168.96687916 52.97319553 162.3125 56.90234375 C129.41324672 73.00926983 79.47880993 57.79438063 46.5 46.75 C35.8770183 43.09884655 25.355981 39.15131244 14.8671875 35.1328125 C6.44197433 31.94914829 -1.60426246 29.5764104 -10.5 28.0625 C-11.45841797 27.89363281 -12.41683594 27.72476562 -13.40429688 27.55078125 C-15.24868215 27.22702599 -17.09395411 26.90827075 -18.94018555 26.59521484 C-20.74557776 26.28493338 -22.54605079 25.94587665 -24.34375 25.59375 C-50.70185994 21.98685075 -80.37477714 27.71460246 -105.3125 36.1875 C-105.97813965 36.4045459 -106.6437793 36.6215918 -107.32958984 36.84521484 C-117.97659073 40.34578299 -127.94777432 45.24725453 -137.97363281 50.22509766 C-139.0097168 50.7360498 -140.04580078 51.24700195 -141.11328125 51.7734375 C-142.50800659 52.47025635 -142.50800659 52.47025635 -143.9309082 53.18115234 C-146.3125 54.1875 -146.3125 54.1875 -149.3125 54.1875 C-110.21227676 16.85252386 -53.09540598 -0.08575715 0 0 Z " fill="#F6BC10" transform="translate(233.3125,230.8125)"/>
<path d="M0 0 C17.02330652 6.23019523 34.27672913 12.41666093 52.02630615 16.18844604 C52.7636499 16.35537964 53.50099365 16.52231323 54.26068115 16.69430542 C77.23083391 21.89261613 99.9198944 22.473801 123.40130615 22.31344604 C125.9989589 22.30338391 128.59661548 22.29426385 131.1942749 22.28610229 C137.47170412 22.2643733 143.74898639 22.23115812 150.02630615 22.18844604 C146.65413377 25.10979937 143.76648385 26.90002862 139.53411865 28.29391479 C138.49900146 28.63744995 137.46388428 28.98098511 136.3973999 29.33493042 C135.32618896 29.67846558 134.25497803 30.02200073 133.15130615 30.37594604 C132.08782959 30.73108276 131.02435303 31.08621948 129.9286499 31.45211792 C121.67393421 34.15412734 114.01673459 35.34170979 105.3583374 35.42672729 C104.5342186 35.43652115 103.71009979 35.446315 102.86100769 35.45640564 C76.74004903 35.70226256 52.58603824 32.97149149 27.00628662 27.48214722 C16.75402459 25.28443783 6.46792985 23.46606588 -3.87384033 21.74923706 C-5.02312012 21.55773071 -6.1723999 21.36622437 -7.35650635 21.16891479 C-8.37115967 21.00286743 -9.38581299 20.83682007 -10.43121338 20.66574097 C-12.97369385 20.18844604 -12.97369385 20.18844604 -15.97369385 19.18844604 C-29.1262199 17.19446828 -42.49775565 16.84031604 -55.77593994 16.87277222 C-58.47377542 16.87594614 -61.17052233 16.85227303 -63.8682251 16.82711792 C-80.22432567 16.76696717 -96.52037534 18.39540716 -112.28619385 22.93844604 C-113.18861816 23.1886853 -114.09104248 23.43892456 -115.02081299 23.69674683 C-121.53929481 25.57928669 -127.72113589 27.96542144 -133.78936768 31.00387573 C-140.69118953 34.36598518 -145.88729952 33.27951322 -152.97369385 31.18844604 C-163.50320577 28.96630879 -174.27547211 28.18215439 -184.97369385 27.18844604 C-181.34104941 23.29436128 -177.52152492 20.34982952 -172.97369385 17.56344604 C-172.28509277 17.13958618 -171.5964917 16.71572632 -170.88702393 16.27902222 C-116.17763185 -16.86626069 -59.47491822 -21.8416416 0 0 Z " fill="#030303" transform="translate(257.97369384765625,276.8115539550781)"/>
<path d="M0 0 C0.70527832 -0.01513641 1.41055664 -0.03027283 2.13720703 -0.04586792 C26.29519674 -0.43043163 26.29519674 -0.43043163 35.37109375 5.80078125 C36.9334375 6.87005859 36.9334375 6.87005859 38.52734375 7.9609375 C39.76738539 8.82356029 41.00692649 9.68690287 42.24609375 10.55078125 C42.97699219 11.05722168 43.70789063 11.56366211 44.4609375 12.08544922 C55.74506222 19.9069782 66.91830517 27.87548398 78.02832031 35.94189453 C81.76298693 38.65121345 85.50499125 41.35036038 89.24609375 44.05078125 C90.73828975 45.12889449 92.23047724 46.2070195 93.72265625 47.28515625 C96.79862569 49.50691253 99.87703605 51.72523457 102.95703125 53.94140625 C109.78778445 58.85886676 116.61575699 63.77995059 123.37109375 68.80078125 C124.32242187 69.5071875 125.27375 70.21359375 126.25390625 70.94140625 C126.91132813 71.4725 127.56875 72.00359375 128.24609375 72.55078125 C128.24609375 72.88078125 128.24609375 73.21078125 128.24609375 73.55078125 C120.93688487 73.80633786 113.62884444 73.98027262 106.31616211 74.10009766 C103.83395344 74.15009341 101.35203485 74.21811665 98.87084961 74.30517578 C74.941611 75.12318716 74.941611 75.12318716 67.5078125 68.88671875 C65.7096124 67.15286623 63.94877221 65.37852691 62.24609375 63.55078125 C60.90280463 62.44115378 59.54094066 61.35315827 58.15234375 60.30078125 C57.01612945 59.38510344 55.88069642 58.46845525 54.74609375 57.55078125 C50.12010728 53.82894312 45.46509185 50.15395714 40.74609375 46.55078125 C35.37989005 42.4534336 30.10445085 38.25125365 24.84301758 34.02050781 C19.70616507 29.89828487 14.50585371 25.86897798 9.25390625 21.89453125 C7.26658871 20.34597213 5.32151108 18.74145126 3.42578125 17.08203125 C2.13027344 15.9528125 2.13027344 15.9528125 0.80859375 14.80078125 C0.06738281 14.1253125 -0.67382812 13.44984375 -1.4375 12.75390625 C-3.76074601 11.21688539 -3.76074601 11.21688539 -6.54492188 12.29443359 C-11.87806977 14.38241131 -16.79608134 17.18467781 -21.81640625 19.92578125 C-22.89212891 20.50328125 -23.96785156 21.08078125 -25.07617188 21.67578125 C-26.11580078 22.24039063 -27.15542969 22.805 -28.2265625 23.38671875 C-29.16765869 23.8976709 -30.10875488 24.40862305 -31.07836914 24.93505859 C-33.84435436 26.60540171 -36.27784442 28.4795871 -38.75390625 30.55078125 C-37.70074219 31.16824219 -36.64757812 31.78570312 -35.5625 32.421875 C-26.64349579 37.6563309 -17.7508763 42.93142415 -8.890625 48.26464844 C-4.57543251 50.86204721 -0.25866086 53.45681186 4.05859375 56.05078125 C5.37694214 56.84427979 5.37694214 56.84427979 6.72192383 57.65380859 C7.54072021 58.14574707 8.3595166 58.63768555 9.203125 59.14453125 C9.9350708 59.58474609 10.6670166 60.02496094 11.42114258 60.47851562 C12.67138405 61.21310566 13.94910454 61.90228665 15.24609375 62.55078125 C15.24609375 63.21078125 15.24609375 63.87078125 15.24609375 64.55078125 C10.27493272 65.19668616 5.30306804 65.78813616 0.31787109 66.31494141 C-1.30920233 66.50015858 -2.93007265 66.73995487 -4.546875 67 C-13.31315439 67.92038389 -20.64468431 61.94883686 -27.75390625 57.55078125 C-29.89075633 56.25197812 -32.02887003 54.95525258 -34.16796875 53.66015625 C-37.74007132 51.49628309 -41.31063897 49.33001556 -44.87524414 47.15380859 C-55.62767603 40.59300575 -66.46300578 34.17808789 -77.39697266 27.92333984 C-78.88016669 27.05960286 -80.34885821 26.16994935 -81.79443359 25.24462891 C-84.3250974 23.6507941 -86.1664172 22.55453517 -89.19921875 22.53515625 C-92.86188312 23.99126135 -96.21501054 25.83838594 -99.62890625 27.80078125 C-100.41209229 28.24333252 -101.19527832 28.68588379 -102.00219727 29.1418457 C-104.58961706 30.60537794 -107.17166691 32.07813125 -109.75390625 33.55078125 C-112.45753455 35.08298658 -115.16260091 36.61262778 -117.86791992 38.1418457 C-119.76324386 39.21348628 -121.65792993 40.28625571 -123.55200195 41.36010742 C-129.02372016 44.45873614 -134.50895841 47.53117403 -140.01171875 50.57421875 C-140.62106766 50.91143448 -141.23041656 51.24865021 -141.85823059 51.59608459 C-144.83511507 53.24298695 -147.81364372 54.88673219 -150.79467773 56.52612305 C-151.87563721 57.12336182 -152.95659668 57.72060059 -154.0703125 58.3359375 C-155.08351563 58.8932959 -156.09671875 59.4506543 -157.140625 60.02490234 C-159.92191614 61.57068367 -159.92191614 61.57068367 -162.8515625 63.96875 C-167.33044288 66.41013163 -171.62325956 65.97713195 -176.62890625 65.80078125 C-177.6034375 65.78273438 -178.57796875 65.7646875 -179.58203125 65.74609375 C-181.97368432 65.69919859 -184.36327222 65.63359032 -186.75390625 65.55078125 C-183.31437127 62.67742972 -179.84691591 60.32466891 -175.94921875 58.1171875 C-174.82056396 57.47515381 -173.69190918 56.83312012 -172.52905273 56.17163086 C-171.31240579 55.48539277 -170.09568855 54.79927931 -168.87890625 54.11328125 C-167.61315856 53.39562347 -166.34761755 52.67760107 -165.08227539 51.95922852 C-162.52031044 50.50575737 -159.95688769 49.05491154 -157.39208984 47.60644531 C-154.17259995 45.78821423 -150.95681085 43.96354312 -147.7421875 42.13671875 C-139.77675177 37.61575827 -131.79810161 33.1206689 -123.78125 28.69140625 C-123.18600021 28.36217667 -122.59075043 28.03294708 -121.97746277 27.69374084 C-119.09587059 26.10016245 -116.21264596 24.50982884 -113.32592773 22.92553711 C-108.89635179 20.48010884 -104.48556134 18.04448821 -100.22436523 15.31396484 C-99.64175934 14.94274002 -99.05915344 14.5715152 -98.45889282 14.18904114 C-96.83333796 13.14450807 -95.21773529 12.08453398 -93.6027832 11.02368164 C-90.62171388 9.48243636 -89.31131934 9.19591151 -86.06640625 9.80078125 C-84.29477636 10.38169089 -82.52408398 10.96546144 -80.75390625 11.55078125 C-79.35773766 11.8382378 -77.95745985 12.10610097 -76.5546875 12.359375 C-67.64804746 14.00421433 -60.80736937 15.9573169 -53.33203125 21.2578125 C-49.95938093 22.94924774 -48.38713993 22.40995397 -44.75390625 21.55078125 C-42.14422657 20.401864 -42.14422657 20.401864 -39.62890625 18.890625 C-38.68345947 18.34752686 -37.7380127 17.80442871 -36.76391602 17.24487305 C-35.77061279 16.66519775 -34.77730957 16.08552246 -33.75390625 15.48828125 C-32.71355225 14.90280518 -31.67319824 14.3173291 -30.60131836 13.71411133 C-24.22257336 10.12721041 -24.22257336 10.12721041 -18.2578125 5.91015625 C-12.38174556 1.57138704 -7.2419744 0.14812418 0 0 Z " fill="#030303" transform="translate(277.75390625,147.44921875)"/>
<path d="M0 0 C0.75038544 0.00093658 1.50077087 0.00187317 2.27389526 0.00283813 C28.86387167 0.07451684 53.64746784 4.41816331 79.44384766 10.73632812 C88.40977861 12.91846831 97.40741879 14.93887661 106.42321777 16.90292358 C108.03192894 17.25368029 109.64026097 17.60618137 111.24816895 17.96060181 C126.06176197 21.22109457 140.40926323 23.53624953 155.61083984 23.44824219 C157.81765986 23.43747482 160.02367238 23.44823511 162.23046875 23.4609375 C170.56203868 23.46850234 178.50029791 22.82624749 186.6875 21.1875 C189.01795025 20.82647246 191.35081956 20.50613824 193.6875 20.1875 C183.77795571 30.85931693 168.85095703 31.89414691 155.15625 32.46875 C128.12460335 33.14105171 101.82452826 27.12838678 75.87890625 20.09375 C70.15537794 18.5513682 64.45247914 17.20344635 58.625 16.125 C57.87541016 15.97740234 57.12582031 15.82980469 56.35351562 15.67773438 C53.47124274 15.13343264 50.58331883 14.65509041 47.6875 14.1875 C46.95021667 14.0653714 46.21293335 13.9432428 45.45330811 13.81741333 C30.57084974 11.3994852 16.00135569 10.66207001 0.9375 10.75 C-0.1557962 10.75270905 -1.24909241 10.75541809 -2.3755188 10.75820923 C-18.67020588 10.8193729 -34.38381617 11.45996299 -50.3125 15.1875 C-51.15538574 15.37473633 -51.99827148 15.56197266 -52.86669922 15.75488281 C-74.90158227 20.72980864 -95.02789273 29.45783681 -115.0859375 39.625 C-119.90134881 41.95691831 -124.81011607 44.07006387 -129.71459961 46.20678711 C-135.11554377 48.58499959 -140.26561192 51.23680261 -145.34375 54.25390625 C-145.9934375 54.56199219 -146.643125 54.87007813 -147.3125 55.1875 C-147.9725 54.8575 -148.6325 54.5275 -149.3125 54.1875 C-110.21227676 16.85252386 -53.09540598 -0.08575715 0 0 Z " fill="#080807" transform="translate(233.3125,230.8125)"/>
<path d="M0 0 C3.96 0 7.92 0 12 0 C12 9.24 12 18.48 12 28 C1 33 1 33 0 33 C0 22.11 0 11.22 0 0 Z " fill="#080808" transform="translate(123,217)"/>
<path d="M0 0 C4.29 0 8.58 0 13 0 C13 8.91 13 17.82 13 27 C4 26 4 26 0 25 C0 16.75 0 8.5 0 0 Z " fill="#040404" transform="translate(317,213)"/>
<path d="M0 0 C3.6875 0.3125 3.6875 0.3125 6.1875 1.9375 C7.6875 4.3125 7.6875 4.3125 7.625 7.3125 C6.6972337 10.28135215 5.59564882 11.91309336 3.6875 14.3125 C4.20441406 14.85519531 4.72132813 15.39789063 5.25390625 15.95703125 C5.91261719 16.67246094 6.57132813 17.38789063 7.25 18.125 C8.24193359 19.18654297 8.24193359 19.18654297 9.25390625 20.26953125 C9.72699219 20.94371094 10.20007813 21.61789062 10.6875 22.3125 C10.3575 23.3025 10.0275 24.2925 9.6875 25.3125 C5.53864741 25.18677719 3.68202585 23.5798472 0.875 20.75 C-0.176875 19.615625 -1.22875 18.48125 -2.3125 17.3125 C-2.9725 20.6125 -3.6325 23.9125 -4.3125 27.3125 C-5.6325 27.6425 -6.9525 27.9725 -8.3125 28.3125 C-9.3125 27.3125 -9.3125 27.3125 -9.4453125 25.125 C-9.37797837 0.88471494 -9.37797837 0.88471494 0 0 Z " fill="#101010" transform="translate(167.3125,322.6875)"/>
<path d="M0 0 C2.0625 0.4375 2.0625 0.4375 4 1 C3.55348122 9.15484303 2.88849677 17.04264468 1 25 C-0.65 25.33 -2.3 25.66 -4 26 C-5.32 23.36 -6.64 20.72 -8 18 C-8.99 21.3 -9.98 24.6 -11 28 C-12.65 27.67 -14.3 27.34 -16 27 C-14.07613169 12.15226337 -14.07613169 12.15226337 -11 6 C-8.8984375 5.296875 -8.8984375 5.296875 -7 5 C-6.01 6.98 -5.02 8.96 -4 11 C-3.67 11 -3.34 11 -3 11 C-2.86722656 10.28972656 -2.73445312 9.57945312 -2.59765625 8.84765625 C-2.42105469 7.92855469 -2.24445313 7.00945312 -2.0625 6.0625 C-1.88847656 5.14597656 -1.71445313 4.22945313 -1.53515625 3.28515625 C-1 1 -1 1 0 0 Z " fill="#090909" transform="translate(218,323)"/>
<path d="M0 0 C1.32 0.33 2.64 0.66 4 1 C4.43630637 9.28982104 2.77967263 16.95969329 1 25 C-0.65 25.33 -2.3 25.66 -4 26 C-5.32 23.36 -6.64 20.72 -8 18 C-8.66 20.97 -9.32 23.94 -10 27 C-11.65 27.33 -13.3 27.66 -15 28 C-15.14090007 23.01085676 -14.68272028 18.56243852 -13.625 13.6875 C-13.36976563 12.47449219 -13.11453125 11.26148438 -12.8515625 10.01171875 C-12 7 -12 7 -10 5 C-8 5.125 -8 5.125 -6 6 C-4.27898465 8.58152302 -4 9.84918025 -4 13 C-3.34 13 -2.68 13 -2 13 C-2.061875 11.453125 -2.061875 11.453125 -2.125 9.875 C-2.00424851 6.13170373 -1.35127982 3.46265453 0 0 Z " fill="#090909" transform="translate(275,323)"/>
<path d="M0 0 C3.96 0 7.92 0 12 0 C12 7.59 12 15.18 12 23 C3 26 3 26 0 26 C0 17.42 0 8.84 0 0 Z " fill="#0D0D0D" transform="translate(138,217)"/>
<path d="M0 0 C4.29 0 8.58 0 13 0 C13 7.59 13 15.18 13 23 C3 22 3 22 0 21 C0 14.07 0 7.14 0 0 Z " fill="#070707" transform="translate(300,213)"/>
<path d="M0 0 C0.99773437 0.02320313 1.99546875 0.04640625 3.0234375 0.0703125 C4.52777344 0.09738281 4.52777344 0.09738281 6.0625 0.125 C6.83335937 0.14820313 7.60421875 0.17140625 8.3984375 0.1953125 C8.78062517 1.85145907 9.11238852 3.51988274 9.3984375 5.1953125 C8.3984375 6.1953125 8.3984375 6.1953125 6.55078125 6.29296875 C4.5 6.26041667 2.44921875 6.22786458 0.3984375 6.1953125 C0.3984375 7.5153125 0.3984375 8.8353125 0.3984375 10.1953125 C2.0484375 10.5253125 3.6984375 10.8553125 5.3984375 11.1953125 C5.3984375 12.5153125 5.3984375 13.8353125 5.3984375 15.1953125 C4.3984375 16.1953125 4.3984375 16.1953125 1.8359375 16.2578125 C1.0315625 16.2371875 0.2271875 16.2165625 -0.6015625 16.1953125 C-0.6015625 17.5153125 -0.6015625 18.8353125 -0.6015625 20.1953125 C2.3684375 20.1953125 5.3384375 20.1953125 8.3984375 20.1953125 C8.78062517 21.85145907 9.11238852 23.51988274 9.3984375 25.1953125 C8.3984375 26.1953125 8.3984375 26.1953125 5.01953125 26.29296875 C3.62496673 26.28629619 2.23042007 26.27433782 0.8359375 26.2578125 C0.12501953 26.25330078 -0.58589844 26.24878906 -1.31835938 26.24414062 C-3.07946263 26.23232114 -4.84052286 26.21438513 -6.6015625 26.1953125 C-6.8937225 18.0959881 -6.48904246 10.10641677 -4.6015625 2.1953125 C-2.6015625 0.1953125 -2.6015625 0.1953125 0 0 Z " fill="#111111" transform="translate(290.6015625,319.8046875)"/>
<path d="M0 0 C1.51400391 0.01740234 1.51400391 0.01740234 3.05859375 0.03515625 C4.07050781 0.04417969 5.08242187 0.05320312 6.125 0.0625 C7.29869141 0.07990234 7.29869141 0.07990234 8.49609375 0.09765625 C8.87828142 1.75380282 9.21004477 3.42222649 9.49609375 5.09765625 C8.49609375 6.09765625 8.49609375 6.09765625 4.93359375 6.16015625 C3.79921875 6.13953125 2.66484375 6.11890625 1.49609375 6.09765625 C1.49609375 7.41765625 1.49609375 8.73765625 1.49609375 10.09765625 C3.14609375 10.42765625 4.79609375 10.75765625 6.49609375 11.09765625 C6.16609375 12.74765625 5.83609375 14.39765625 5.49609375 16.09765625 C3.51609375 16.09765625 1.53609375 16.09765625 -0.50390625 16.09765625 C-0.50390625 17.41765625 -0.50390625 18.73765625 -0.50390625 20.09765625 C2.46609375 20.09765625 5.43609375 20.09765625 8.49609375 20.09765625 C8.87828142 21.75380282 9.21004477 23.42222649 9.49609375 25.09765625 C8.49609375 26.09765625 8.49609375 26.09765625 5.37109375 26.23046875 C4.09234375 26.22789062 2.81359375 26.2253125 1.49609375 26.22265625 C0.21734375 26.22523438 -1.06140625 26.2278125 -2.37890625 26.23046875 C-5.50390625 26.09765625 -5.50390625 26.09765625 -6.50390625 25.09765625 C-6.09168568 0.23758525 -6.09168568 0.23758525 0 0 Z " fill="#111111" transform="translate(188.50390625,319.90234375)"/>
<path d="M0 0 C0.5775 0.2475 1.155 0.495 1.75 0.75 C1.75 2.07 1.75 3.39 1.75 4.75 C0.76 5.08 -0.23 5.41 -1.25 5.75 C-1.19436349 7.58468832 -1.19436349 7.58468832 -0.25 9.75 C0.760625 10.4925 1.77125 11.235 2.8125 12 C4.76843072 13.5223268 5.62526122 14.29383848 6.28515625 16.70703125 C6.4285915 20.06840521 6.0024446 22.35618642 4.1875 25.1875 C0.91434238 27.28567796 -1.36417724 27.75 -5.25 27.75 C-8.1875 25.8125 -8.1875 25.8125 -10.25 23.75 C-9.755 22.265 -9.755 22.265 -9.25 20.75 C-6.28 20.75 -3.31 20.75 -0.25 20.75 C0.08 19.43 0.41 18.11 0.75 16.75 C-0.013125 16.5025 -0.77625 16.255 -1.5625 16 C-4.62480696 14.57567118 -5.77390425 13.78419681 -7.25 10.75 C-7.1787858 6.76200466 -6.79041329 4.49539765 -4.4375 1.25 C-2.25 -0.25 -2.25 -0.25 0 0 Z " fill="#0B0B0B" transform="translate(314.25,320.25)"/>
<path d="M0 0 C1.39456452 0.00667256 2.78911118 0.01863093 4.18359375 0.03515625 C4.89451172 0.03966797 5.60542969 0.04417969 6.33789062 0.04882812 C8.09899388 0.06064761 9.86005411 0.07858362 11.62109375 0.09765625 C12.00328142 1.75380282 12.33504477 3.42222649 12.62109375 5.09765625 C11.62109375 6.09765625 11.62109375 6.09765625 9.05859375 6.16015625 C7.85203125 6.12921875 7.85203125 6.12921875 6.62109375 6.09765625 C6.56050781 7.30164063 6.49992187 8.505625 6.4375 9.74609375 C6.35309643 11.32162702 6.26844834 12.89714721 6.18359375 14.47265625 C6.12461914 15.66375 6.12461914 15.66375 6.06445312 16.87890625 C5.734375 22.87109375 5.734375 22.87109375 4.62109375 25.09765625 C3.30109375 25.09765625 1.98109375 25.09765625 0.62109375 25.09765625 C0.62109375 18.49765625 0.62109375 11.89765625 0.62109375 5.09765625 C-1.35890625 5.09765625 -3.33890625 5.09765625 -5.37890625 5.09765625 C-4.25559544 0.12299409 -4.25559544 0.12299409 0 0 Z " fill="#0D0D0D" transform="translate(329.37890625,321.90234375)"/>
<path d="M0 0 C1.39456452 0.00667256 2.78911118 0.01863093 4.18359375 0.03515625 C4.89451172 0.03966797 5.60542969 0.04417969 6.33789062 0.04882812 C8.09899388 0.06064761 9.86005411 0.07858362 11.62109375 0.09765625 C12.00328142 1.75380282 12.33504477 3.42222649 12.62109375 5.09765625 C11.62109375 6.09765625 11.62109375 6.09765625 9.05859375 6.16015625 C7.85203125 6.12921875 7.85203125 6.12921875 6.62109375 6.09765625 C6.56050781 7.30164063 6.49992188 8.505625 6.4375 9.74609375 C6.35309643 11.32162702 6.26844834 12.89714721 6.18359375 14.47265625 C6.12461914 15.66375 6.12461914 15.66375 6.06445312 16.87890625 C5.734375 22.87109375 5.734375 22.87109375 4.62109375 25.09765625 C3.30109375 25.09765625 1.98109375 25.09765625 0.62109375 25.09765625 C0.62109375 18.49765625 0.62109375 11.89765625 0.62109375 5.09765625 C-1.35890625 5.09765625 -3.33890625 5.09765625 -5.37890625 5.09765625 C-4.25559544 0.12299409 -4.25559544 0.12299409 0 0 Z " fill="#0D0D0D" transform="translate(231.37890625,321.90234375)"/>
<path d="M0 0 C5.28 0 10.56 0 16 0 C16 3.96 16 7.92 16 12 C10.72 12 5.44 12 0 12 C0 8.04 0 4.08 0 0 Z " fill="#070707" transform="translate(178,202)"/>
<path d="M0 0 C4.95 0 9.9 0 15 0 C15 3.96 15 7.92 15 12 C10.05 12 5.1 12 0 12 C0 8.04 0 4.08 0 0 Z " fill="#020202" transform="translate(197,202)"/>
<path d="M0 0 C3.10666429 1.61594246 5.80180987 3.70487026 8.53515625 5.87109375 C9.10363281 6.31001953 9.67210937 6.74894531 10.2578125 7.20117188 C13.39112385 9.64748108 16.28922784 12.17133079 19.03515625 15.05859375 C16.40442211 15.50124118 14.62206417 15.40944275 12.31005859 14.02734375 C10.39966639 12.58854609 8.55541793 11.09501806 6.72265625 9.55859375 C6.07748047 9.03394531 5.43230469 8.50929687 4.76757812 7.96875 C3.18123486 6.67617401 1.60697319 5.36879569 0.03515625 4.05859375 C-6.03182501 7.98588395 -6.03182501 7.98588395 -11.71484375 12.43359375 C-14.36051798 14.34435847 -15.7718817 14.4235037 -18.96484375 14.05859375 C-15.47834695 10.45010167 -11.88634658 7.25596003 -7.90234375 4.18359375 C-6.88011719 3.38179687 -5.85789063 2.58 -4.8046875 1.75390625 C-1.96484375 0.05859375 -1.96484375 0.05859375 0 0 Z " fill="#181818" transform="translate(237.96484375,135.94140625)"/>
<path d="M0 0 C3.96 0 7.92 0 12 0 C12 1.98 12 3.96 12 6 C9.8828125 7.8984375 9.8828125 7.8984375 7.125 9.375 C6.22007812 9.87773437 5.31515625 10.38046875 4.3828125 10.8984375 C2 12 2 12 0 12 C0 8.04 0 4.08 0 0 Z " fill="#F8BF14" transform="translate(232,152)"/>
<path d="M0 0 C5.28 0 10.56 0 16 0 C16 1.98 16 3.96 16 6 C10.72 6 5.44 6 0 6 C0 4.02 0 2.04 0 0 Z " fill="#131313" transform="translate(197,217)"/>
<path d="M0 0 C5.28 0 10.56 0 16 0 C16 1.98 16 3.96 16 6 C10.72 6 5.44 6 0 6 C0 4.02 0 2.04 0 0 Z " fill="#111111" transform="translate(178,217)"/>
<path d="M0 0 C0 1.65 0 3.3 0 5 C-3.77143982 4.8902432 -7.54187097 4.75958521 -11.3125 4.625 C-12.9202832 4.57859375 -12.9202832 4.57859375 -14.56054688 4.53125 C-15.58857422 4.49257812 -16.61660156 4.45390625 -17.67578125 4.4140625 C-18.62364502 4.3826416 -19.57150879 4.3512207 -20.5480957 4.31884766 C-23 4 -23 4 -26 2 C-17.2580141 0.6786742 -8.862582 -0.33165588 0 0 Z " fill="#1C1C1C" transform="translate(260,221)"/>
<path d="M0 0 C0.66 0.33 1.32 0.66 2 1 C0.61043975 4.35810395 -0.82526467 6.18586552 -4 8 C-6.75 8.1875 -6.75 8.1875 -9 8 C-6.14723863 5.06799526 -3.34920216 2.35684596 0 0 Z " fill="#111111" transform="translate(228,142)"/>
<path d="M0 0 C-3.23507998 4.4114727 -6.84557192 4.84694558 -11.953125 5.703125 C-12.62859375 5.80109375 -13.3040625 5.8990625 -14 6 C-11.72698066 3.45655714 -9.54913519 2.12383563 -6.4375 0.75 C-5.65246094 0.39421875 -4.86742187 0.0384375 -4.05859375 -0.328125 C-2 -1 -2 -1 0 0 Z " fill="#DFB434" transform="translate(140,261)"/>
<path d="M0 0 C-0.33 0.99 -0.66 1.98 -1 3 C-2.4370809 3.05422947 -3.87475462 3.09289723 -5.3125 3.125 C-6.11300781 3.14820313 -6.91351563 3.17140625 -7.73828125 3.1953125 C-10 3 -10 3 -13 1 C-8.60563789 0.14256349 -4.47427924 -0.08948558 0 0 Z " fill="#373737" transform="translate(247,222)"/>
</svg>
